<?xml version="1.0" encoding="utf-8"?>
<!DOCTYPE svg PUBLIC "-//W3C//DTD SVG 1.1//EN" "http://www.w3.org/Graphics/SVG/1.1/DTD/svg11.dtd">
<svg version="1.1" xmlns="http://www.w3.org/2000/svg" xmlns:xlink="http://www.w3.org/1999/xlink" x="0px" y="0px"
	 width="60px" height="60px" viewBox="0 0 60 60" enable-background="new 0 0 60 60" xml:space="preserve">
<path fill="#fff" d="M6.633,55.062l12.272-20.515c0.241,0.029,0.484,0.072,0.735,0.072c1.389,0,2.638-0.565,3.542-1.472l6.265,1.688
	c0.744,1.826,2.527,3.113,4.623,3.113c2.754,0,4.989-2.236,4.989-4.995c0-0.66-0.134-1.289-0.367-1.867l12.375-17.625
	c0.247,0.037,0.494,0.077,0.756,0.077c2.759,0,4.989-2.235,4.989-4.995s-2.23-4.992-4.989-4.992s-4.995,2.232-4.995,4.992
	c0,0.857,0.234,1.652,0.616,2.354L35.334,28.146c-0.413-0.108-0.829-0.184-1.266-0.184c-1.802,0-3.361,0.955-4.24,2.381
	l-5.267-1.421c-0.346-2.42-2.404-4.287-4.922-4.287c-2.756,0-4.992,2.233-4.992,4.992c0,0.859,0.235,1.651,0.619,2.355L4.938,49.248
	V0.5H0.5v59h59v-4.438H6.633z"/>
</svg>
