<?xml version="1.0" encoding="utf-8"?>
<!DOCTYPE svg PUBLIC "-//W3C//DTD SVG 1.1//EN" "http://www.w3.org/Graphics/SVG/1.1/DTD/svg11.dtd">
<svg version="1.1" xmlns="http://www.w3.org/2000/svg" xmlns:xlink="http://www.w3.org/1999/xlink" x="0px" y="0px"
	 width="60px" height="60px" viewBox="0 0 60 60" enable-background="new 0 0 60 60" xml:space="preserve">
<path fill="#fff" d="M51.867,54.666c-0.375,0-0.75-0.121-1.064-0.359L38.425,44.85H8.785c-4.568,0-8.285-3.727-8.285-8.307V13.64
	c0-4.58,3.716-8.306,8.285-8.306h42.431c4.568,0,8.284,3.726,8.284,8.306v22.903c0,4.432-3.475,8.059-7.834,8.295l1.838,7.369
	c0.094,0.215,0.145,0.451,0.145,0.697c0,0.975-0.787,1.762-1.758,1.762C51.881,54.666,51.875,54.666,51.867,54.666z M8.785,8.857
	c-2.63,0-4.77,2.146-4.77,4.783v22.903c0,2.639,2.14,4.783,4.77,4.783h30.232c0.385,0,0.759,0.127,1.064,0.359l8.866,6.775
	l-1.232-4.945c-0.131-0.525-0.014-1.084,0.321-1.512c0.331-0.428,0.842-0.678,1.384-0.678h1.796c2.632,0,4.771-2.145,4.771-4.783
	V13.64c0-2.637-2.139-4.783-4.771-4.783H8.785z"/>
</svg>
